<?xml version="1.0" encoding="utf-8"?>
<!-- Generator: Adobe Illustrator 18.1.0, SVG Export Plug-In . SVG Version: 6.00 Build 0)  -->
<svg version="1.1" id="Layer_1" xmlns="http://www.w3.org/2000/svg" xmlns:xlink="http://www.w3.org/1999/xlink" x="0px" y="0px"
	 viewBox="0 0 60 68.7" enable-background="new 0 0 60 68.7" xml:space="preserve">
<path fill="none" stroke="#F1EFED" stroke-width="3" stroke-linecap="round" stroke-linejoin="round" stroke-miterlimit="10" d="
	M-19.6,15.1c4.4,1,7.8,5,7.8,9.7c0,5.5-4.5,10-10,10H-54c-5.5,0-10-3.9-10-9.4c0-4.7,3.3-8.6,7.6-9.7c-0.3-0.8-0.4-1.7-0.4-2.6
	c0-4.4,3.6-8,8-8c2.2,0,4.2,0.9,5.6,2.3l0,0c2-4.3,6.3-7.3,11.3-7.3c6.9,0,12.4,5.6,12.4,12.4C-19.3,13.4-19.6,15.1-19.6,15.1
	L-19.6,15.1z"/>
<path fill="#F1EFED" d="M-51.1,42.5c3.2,3.2,3.4,6.6,3.4,6.6c0,1.9-1.5,3.4-3.4,3.4c-1.9,0-3.4-1.5-3.4-3.4
	C-54.4,49.2-54.3,45.8-51.1,42.5z"/>
<path fill="#F1EFED" d="M-25.2,42.5c3.2,3.2,3.4,6.6,3.4,6.6c0,1.9-1.5,3.4-3.4,3.4c-1.9,0-3.4-1.5-3.4-3.4
	C-28.5,49.2-28.4,45.8-25.2,42.5z"/>
<path fill="#F1EFED" d="M-38.1,45.7c3.2,3.2,3.4,6.6,3.4,6.6c0,1.9-1.5,3.4-3.4,3.4c-1.9,0-3.4-1.5-3.4-3.4
	C-41.5,52.3-41.3,48.9-38.1,45.7z"/>
<path fill="none" stroke="#FFFFFF" stroke-width="3" stroke-linecap="round" stroke-linejoin="round" stroke-miterlimit="10" d="
	M50.1,20.2c4.8,1.1,8.4,5.4,8.4,10.5c0,6-4.8,10.8-10.8,10.8H12.8C6.8,41.5,2,37.3,2,31.3c0-5.1,3.5-9.4,8.3-10.5
	C10,20,9.8,19,9.8,18c0-4.8,3.9-8.7,8.7-8.7c2.4,0,4.5,1,6.1,2.5h0C26.7,7.2,31.4,4,36.9,4c7.4,0,13.5,6,13.5,13.5
	C50.3,18.4,50.1,20.2,50.1,20.2L50.1,20.2z"/>
<line fill="none" stroke="#FFFFFF" stroke-width="3" stroke-linecap="round" stroke-linejoin="round" stroke-miterlimit="10" x1="15.9" y1="48.2" x2="15" y2="54.8"/>
<line fill="none" stroke="#FFFFFF" stroke-width="3" stroke-linecap="round" stroke-linejoin="round" stroke-miterlimit="10" x1="25.6" y1="48.2" x2="23.7" y2="61.3"/>
<line fill="none" stroke="#FFFFFF" stroke-width="3" stroke-linecap="round" stroke-linejoin="round" stroke-miterlimit="10" x1="35.6" y1="48.2" x2="33.7" y2="61.3"/>
<line fill="none" stroke="#FFFFFF" stroke-width="3" stroke-linecap="round" stroke-linejoin="round" stroke-miterlimit="10" x1="45.2" y1="48.2" x2="44.3" y2="54.8"/>
</svg>
