<?xml version="1.0" encoding="utf-8"?>
<!-- Generator: Adobe Illustrator 18.1.0, SVG Export Plug-In . SVG Version: 6.00 Build 0)  -->
<svg version="1.1" id="Layer_1" xmlns="http://www.w3.org/2000/svg" xmlns:xlink="http://www.w3.org/1999/xlink" x="0px" y="0px"
	 viewBox="0 0 65.5 43.2" enable-background="new 0 0 65.5 43.2" xml:space="preserve">
<path fill="none" stroke="#F1EFED" stroke-width="3" stroke-linecap="round" stroke-linejoin="round" stroke-miterlimit="10" d="
	M-19.6,15.1c4.4,1,7.8,5,7.8,9.7c0,5.5-4.5,10-10,10H-54c-5.5,0-10-3.9-10-9.4c0-4.7,3.3-8.6,7.6-9.7c-0.3-0.8-0.4-1.7-0.4-2.6
	c0-4.4,3.6-8,8-8c2.2,0,4.2,0.9,5.6,2.3l0,0c2-4.3,6.3-7.3,11.3-7.3c6.9,0,12.4,5.6,12.4,12.4C-19.3,13.4-19.6,15.1-19.6,15.1
	L-19.6,15.1z"/>
<path fill="#F1EFED" d="M-51.1,42.5c3.2,3.2,3.4,6.6,3.4,6.6c0,1.9-1.5,3.4-3.4,3.4c-1.9,0-3.4-1.5-3.4-3.4
	C-54.4,49.2-54.3,45.8-51.1,42.5z"/>
<path fill="#F1EFED" d="M-25.2,42.5c3.2,3.2,3.4,6.6,3.4,6.6c0,1.9-1.5,3.4-3.4,3.4c-1.9,0-3.4-1.5-3.4-3.4
	C-28.5,49.2-28.4,45.8-25.2,42.5z"/>
<path fill="#F1EFED" d="M-38.1,45.7c3.2,3.2,3.4,6.6,3.4,6.6c0,1.9-1.5,3.4-3.4,3.4c-1.9,0-3.4-1.5-3.4-3.4
	C-41.5,52.3-41.3,48.9-38.1,45.7z"/>
<line fill="none" stroke="#FFFFFF" stroke-width="3" stroke-linecap="round" stroke-linejoin="round" stroke-miterlimit="10" x1="7.6" y1="33.7" x2="58.1" y2="33.7"/>
<line fill="none" stroke="#FFFFFF" stroke-width="3" stroke-linecap="round" stroke-linejoin="round" stroke-miterlimit="10" x1="4.4" y1="27.5" x2="61" y2="27.5"/>
<line fill="none" stroke="#FFFFFF" stroke-width="3" stroke-linecap="round" stroke-linejoin="round" stroke-miterlimit="10" x1="6.4" y1="21.4" x2="59.3" y2="21.4"/>
<line fill="none" stroke="#FFFFFF" stroke-width="3" stroke-linecap="round" stroke-linejoin="round" stroke-miterlimit="10" x1="11.5" y1="15.3" x2="54.9" y2="15.3"/>
<line fill="none" stroke="#FFFFFF" stroke-width="3" stroke-linecap="round" stroke-linejoin="round" stroke-miterlimit="10" x1="33.2" y1="3" x2="48.7" y2="3"/>
<line fill="none" stroke="#FFFFFF" stroke-width="3" stroke-linecap="round" stroke-linejoin="round" stroke-miterlimit="10" x1="15.5" y1="8.9" x2="24.1" y2="8.9"/>
<line fill="none" stroke="#FFFFFF" stroke-width="3" stroke-linecap="round" stroke-linejoin="round" stroke-miterlimit="10" x1="30.2" y1="9" x2="51.7" y2="9"/>
<line fill="none" stroke="#FFFFFF" stroke-width="3" stroke-linecap="round" stroke-linejoin="round" stroke-miterlimit="10" x1="12.6" y1="39.7" x2="54.1" y2="39.7"/>
</svg>
