<?xml version="1.0" encoding="utf-8"?>
<!-- Generator: Adobe Illustrator 18.1.0, SVG Export Plug-In . SVG Version: 6.00 Build 0)  -->
<svg version="1.1" id="Layer_1" xmlns="http://www.w3.org/2000/svg" xmlns:xlink="http://www.w3.org/1999/xlink" x="0px" y="0px"
	 viewBox="0 0 37.6 37.3" enable-background="new 0 0 37.6 37.3" xml:space="preserve">
<path fill="none" stroke="#F1EFED" stroke-width="3" stroke-linecap="round" stroke-linejoin="round" stroke-miterlimit="10" d="
	M-19.6,15.1c4.4,1,7.8,5,7.8,9.7c0,5.5-4.5,10-10,10H-54c-5.5,0-10-3.9-10-9.4c0-4.7,3.3-8.6,7.6-9.7c-0.3-0.8-0.4-1.7-0.4-2.6
	c0-4.4,3.6-8,8-8c2.2,0,4.2,0.9,5.6,2.3l0,0c2-4.3,6.3-7.3,11.3-7.3c6.9,0,12.4,5.6,12.4,12.4C-19.3,13.4-19.6,15.1-19.6,15.1
	L-19.6,15.1z"/>
<path fill="#F1EFED" d="M-51.1,42.5c3.2,3.2,3.4,6.6,3.4,6.6c0,1.9-1.5,3.4-3.4,3.4c-1.9,0-3.4-1.5-3.4-3.4
	C-54.4,49.2-54.3,45.8-51.1,42.5z"/>
<path fill="#F1EFED" d="M-25.2,42.5c3.2,3.2,3.4,6.6,3.4,6.6c0,1.9-1.5,3.4-3.4,3.4c-1.9,0-3.4-1.5-3.4-3.4
	C-28.5,49.2-28.4,45.8-25.2,42.5z"/>
<path fill="#F1EFED" d="M-38.1,45.7c3.2,3.2,3.4,6.6,3.4,6.6c0,1.9-1.5,3.4-3.4,3.4c-1.9,0-3.4-1.5-3.4-3.4
	C-41.5,52.3-41.3,48.9-38.1,45.7z"/>
<path fill="none" stroke="#FFFFFF" stroke-width="3" stroke-linecap="round" stroke-linejoin="round" stroke-miterlimit="10" d="
	M26.6,22.7c-6.8,0-12.3-5.5-12.3-12.3c0-3.3,1.3-6.2,3.4-8.4C9.4,3,3,9.9,3,18.4C3,27.6,10.4,35,19.6,35c9.1,0,16.6-7.4,16.6-16.6
	c0-0.1,0-0.2,0-0.2C33.8,21,30.4,22.7,26.6,22.7z"/>
</svg>
