<?xml version="1.0" encoding="utf-8"?>
<!-- Generator: Adobe Illustrator 18.1.0, SVG Export Plug-In . SVG Version: 6.00 Build 0)  -->
<svg version="1.1" id="Layer_1" xmlns="http://www.w3.org/2000/svg" xmlns:xlink="http://www.w3.org/1999/xlink" x="0px" y="0px"
	 viewBox="0 0 65.5 63.9" enable-background="new 0 0 65.5 63.9" xml:space="preserve">
<path fill="none" stroke="#F1EFED" stroke-width="3" stroke-linecap="round" stroke-linejoin="round" stroke-miterlimit="10" d="
	M-19.6,15.1c4.4,1,7.8,5,7.8,9.7c0,5.5-4.5,10-10,10H-54c-5.5,0-10-3.9-10-9.4c0-4.7,3.3-8.6,7.6-9.7c-0.3-0.8-0.4-1.7-0.4-2.6
	c0-4.4,3.6-8,8-8c2.2,0,4.2,0.9,5.6,2.3l0,0c2-4.3,6.3-7.3,11.3-7.3c6.9,0,12.4,5.6,12.4,12.4C-19.3,13.4-19.6,15.1-19.6,15.1
	L-19.6,15.1z"/>
<path fill="#F1EFED" d="M-51.1,42.5c3.2,3.2,3.4,6.6,3.4,6.6c0,1.9-1.5,3.4-3.4,3.4c-1.9,0-3.4-1.5-3.4-3.4
	C-54.4,49.2-54.3,45.8-51.1,42.5z"/>
<path fill="#F1EFED" d="M-25.2,42.5c3.2,3.2,3.4,6.6,3.4,6.6c0,1.9-1.5,3.4-3.4,3.4c-1.9,0-3.4-1.5-3.4-3.4
	C-28.5,49.2-28.4,45.8-25.2,42.5z"/>
<path fill="#F1EFED" d="M-38.1,45.7c3.2,3.2,3.4,6.6,3.4,6.6c0,1.9-1.5,3.4-3.4,3.4c-1.9,0-3.4-1.5-3.4-3.4
	C-41.5,52.3-41.3,48.9-38.1,45.7z"/>
<g>
	
		<circle fill="none" stroke="#FFFFFF" stroke-width="3" stroke-linecap="round" stroke-linejoin="round" stroke-miterlimit="10" cx="32.4" cy="31.3" r="16.6"/>
	
		<line fill="none" stroke="#FFFFFF" stroke-width="3" stroke-linecap="round" stroke-linejoin="round" stroke-miterlimit="10" x1="32.4" y1="6.7" x2="32.4" y2="1.5"/>
	
		<line fill="none" stroke="#FFFFFF" stroke-width="3" stroke-linecap="round" stroke-linejoin="round" stroke-miterlimit="10" x1="2.7" y1="31.3" x2="7.9" y2="31.3"/>
	
		<line fill="none" stroke="#FFFFFF" stroke-width="3" stroke-linecap="round" stroke-linejoin="round" stroke-miterlimit="10" x1="49.7" y1="48.6" x2="53.8" y2="52.7"/>
	
		<line fill="none" stroke="#FFFFFF" stroke-width="3" stroke-linecap="round" stroke-linejoin="round" stroke-miterlimit="10" x1="11" y1="9.9" x2="15.1" y2="14"/>
	
		<line fill="none" stroke="#FFFFFF" stroke-width="3" stroke-linecap="round" stroke-linejoin="round" stroke-miterlimit="10" x1="15.1" y1="48.6" x2="11" y2="52.7"/>
	
		<line fill="none" stroke="#FFFFFF" stroke-width="3" stroke-linecap="round" stroke-linejoin="round" stroke-miterlimit="10" x1="53.8" y1="9.9" x2="49.7" y2="14"/>
	<g>
		
			<line fill="none" stroke="#FFFFFF" stroke-width="3" stroke-linecap="round" stroke-linejoin="round" stroke-miterlimit="10" x1="49.7" y1="14" x2="53.8" y2="9.9"/>
		
			<line fill="none" stroke="#FFFFFF" stroke-width="3" stroke-linecap="round" stroke-linejoin="round" stroke-miterlimit="10" x1="11" y1="52.7" x2="15.1" y2="48.6"/>
		
			<line fill="none" stroke="#FFFFFF" stroke-width="3" stroke-linecap="round" stroke-linejoin="round" stroke-miterlimit="10" x1="49.7" y1="48.7" x2="53.8" y2="52.8"/>
		
			<line fill="none" stroke="#FFFFFF" stroke-width="3" stroke-linecap="round" stroke-linejoin="round" stroke-miterlimit="10" x1="10.9" y1="9.9" x2="15" y2="14"/>
		
			<line fill="none" stroke="#FFFFFF" stroke-width="3" stroke-linecap="round" stroke-linejoin="round" stroke-miterlimit="10" x1="32.3" y1="55.9" x2="32.3" y2="61.1"/>
		
			<line fill="none" stroke="#FFFFFF" stroke-width="3" stroke-linecap="round" stroke-linejoin="round" stroke-miterlimit="10" x1="32.3" y1="1.6" x2="32.3" y2="6.9"/>
		
			<line fill="none" stroke="#FFFFFF" stroke-width="3" stroke-linecap="round" stroke-linejoin="round" stroke-miterlimit="10" x1="7.8" y1="31.4" x2="2.6" y2="31.4"/>
		
			<line fill="none" stroke="#FFFFFF" stroke-width="3" stroke-linecap="round" stroke-linejoin="round" stroke-miterlimit="10" x1="62" y1="31.4" x2="56.8" y2="31.4"/>
	</g>
</g>
</svg>
